<svg xmlns="http://www.w3.org/2000/svg" width="59.667" height="59.617" viewBox="0 0 59.667 59.617">
  <g id="Icon_ionic-ios-rocket" data-name="Icon ionic-ios-rocket" transform="translate(-3.366 -3.372)">
    <path id="Path_26" data-name="Path 26" d="M62.719,4.181a.633.633,0,0,0-.473-.488c-7.8-1.907-25.824,4.89-35.589,14.654a42.208,42.208,0,0,0-4.746,5.606,17.661,17.661,0,0,0-8.589,1.075C6.08,28.213,3.972,36.529,3.385,40.1A1.284,1.284,0,0,0,4.79,41.591l11.629-1.276a25.852,25.852,0,0,0,.158,2.624,2.6,2.6,0,0,0,.76,1.592l4.5,4.5a2.6,2.6,0,0,0,1.592.76,25.8,25.8,0,0,0,2.61.158L24.764,61.565a1.284,1.284,0,0,0,1.491,1.405c3.57-.574,11.9-2.681,15.07-9.922a17.74,17.74,0,0,0,1.09-8.56,42.276,42.276,0,0,0,5.621-4.746C57.844,29.991,64.6,12.368,62.719,4.181Zm-23.4,22.928a6.124,6.124,0,1,1,8.661,0A6.119,6.119,0,0,1,39.318,27.109Z" transform="translate(0 0)" fill="#fff"/>
    <path id="Path_27" data-name="Path 27" d="M19.007,30.3h0a5.44,5.44,0,0,1-2.839,1.147A3.86,3.86,0,0,1,11.723,27a5.333,5.333,0,0,1,1.133-2.825l.014-.014a.479.479,0,0,0-.4-.817,6.592,6.592,0,0,0-3.857,1.878C6.03,27.805,5.787,37.384,5.787,37.384s9.593-.244,12.174-2.825A6.548,6.548,0,0,0,19.839,30.7.491.491,0,0,0,19.007,30.3Z" transform="translate(2.516 20.755)" fill="#fff"/>
  </g>
</svg>
