<svg xmlns="http://www.w3.org/2000/svg" xmlns:xlink="http://www.w3.org/1999/xlink" width="65" height="65" viewBox="0 0 65 65">
  <defs>
    <filter id="Ellipse_384" x="0" y="0" width="65" height="65" filterUnits="userSpaceOnUse">
      <feOffset dy="3" input="SourceAlpha"/>
      <feGaussianBlur stdDeviation="3" result="blur"/>
      <feFlood flood-opacity="0.161"/>
      <feComposite operator="in" in2="blur"/>
      <feComposite in="SourceGraphic"/>
    </filter>
  </defs>
  <g id="Group_2859" data-name="Group 2859" transform="translate(-1262 -718)">
    <g transform="matrix(1, 0, 0, 1, 1262, 718)" filter="url(#Ellipse_384)">
      <circle id="Ellipse_384-2" data-name="Ellipse 384" cx="23.5" cy="23.5" r="23.5" transform="translate(9 6)" fill="#fff"/>
    </g>
    <path id="Icon_awesome-coins" data-name="Icon awesome-coins" d="M0,19v2c0,1.655,4.031,3,9,3s9-1.345,9-3V19c-1.936,1.364-5.475,2-9,2S1.936,20.363,0,19ZM15,6c4.969,0,9-1.345,9-3s-4.031-3-9-3S6,1.345,6,3,10.031,6,15,6ZM0,14.081V16.5c0,1.655,4.031,3,9,3s9-1.345,9-3V14.081C16.064,15.675,12.52,16.5,9,16.5S1.936,15.675,0,14.081Zm19.5.516c2.686-.52,4.5-1.486,4.5-2.6V10a11.511,11.511,0,0,1-4.5,1.617ZM9,7.5c-4.969,0-9,1.678-9,3.75S4.031,15,9,15s9-1.678,9-3.75S13.969,7.5,9,7.5Zm10.28,2.639C22.092,9.633,24,8.639,24,7.5v-2c-1.664,1.177-4.523,1.809-7.533,1.959A5.249,5.249,0,0,1,19.28,10.139Z" transform="translate(1283 736)" fill="#41b74f"/>
  </g>
</svg>
