<svg id="_3" data-name="3" xmlns="http://www.w3.org/2000/svg" width="41.438" height="41.438" viewBox="0 0 41.438 41.438">
  <path id="Tracciato_2054" data-name="Tracciato 2054" d="M56.438,35.719A20.719,20.719,0,1,1,35.719,15,20.719,20.719,0,0,1,56.438,35.719" transform="translate(-15 -15)" fill="#da2f47"/>
  <path id="Tracciato_2055" data-name="Tracciato 2055" d="M57.431,79.946c-.051-.207-1.343-5.041-8.615-5.041s-8.564,4.834-8.615,5.041a.571.571,0,0,0,.272.636.581.581,0,0,0,.691-.087c.022-.022,2.249-2.137,7.652-2.137s7.632,2.115,7.652,2.135a.578.578,0,0,0,.4.167.575.575,0,0,0,.558-.715ZM46.176,65.458c-3.746-3.747-9.767-3.79-10.022-3.79a1.151,1.151,0,0,0,0,2.3,16.042,16.042,0,0,1,4.585.848A4.7,4.7,0,0,0,39.606,68c0,2.226,1.288,4.029,2.879,4.029s2.877-1.8,2.877-4.029a5.2,5.2,0,0,0-.043-.584c.016,0,.03.008.043.008a1.151,1.151,0,0,0,.813-1.964Zm15.3-3.79c-.255,0-6.275.043-10.022,3.79a1.151,1.151,0,0,0,.813,1.964c.015,0,.027-.008.042-.008-.019.193-.042.384-.042.584,0,2.226,1.288,4.029,2.877,4.029s2.879-1.8,2.879-4.029a4.7,4.7,0,0,0-1.13-3.181,16.042,16.042,0,0,1,4.585-.848,1.151,1.151,0,0,0,0-2.3Zm0,0" transform="translate(-28.096 -45.553)" fill="#292f33"/>
</svg>
