<svg id="_6" data-name="6" xmlns="http://www.w3.org/2000/svg" width="41.441" height="41.441" viewBox="0 0 41.441 41.441">
  <path id="Tracciato_2064" data-name="Tracciato 2064" d="M56.441,35.72A20.72,20.72,0,1,1,35.72,15a20.72,20.72,0,0,1,20.72,20.72" transform="translate(-15 -15)" fill="#ffcc4d"/>
  <path id="Tracciato_2065" data-name="Tracciato 2065" d="M57.189,69.185c-.051-.211-1.329-5.149-8.523-5.149s-8.473,4.939-8.523,5.149a.594.594,0,0,0,.27.652.562.562,0,0,0,.683-.091c.021-.022,2.225-2.183,7.571-2.183s7.551,2.161,7.571,2.181a.563.563,0,0,0,.4.171.552.552,0,0,0,.28-.076A.593.593,0,0,0,57.189,69.185Zm4-16.319a1.123,1.123,0,0,1-.913-.471c-2.769-3.814-7.418-.995-7.613-.874a1.117,1.117,0,0,1-1.563-.4,1.2,1.2,0,0,1,.391-1.614c2.274-1.41,7.417-2.913,10.605,1.477a1.2,1.2,0,0,1-.227,1.647A1.1,1.1,0,0,1,61.194,52.866Zm-25.057,0a1.115,1.115,0,0,1-.682-.236,1.2,1.2,0,0,1-.227-1.647c3.189-4.39,8.333-2.887,10.607-1.477a1.2,1.2,0,0,1,.39,1.612,1.117,1.117,0,0,1-1.56.405c-.2-.124-4.867-2.91-7.616.872A1.122,1.122,0,0,1,36.137,52.866Zm25.055,2.351a1.158,1.158,0,0,0-1.14-1.175H52.082a1.177,1.177,0,0,0,0,2.352h5.8a1.71,1.71,0,0,0,1.6,1.175,1.737,1.737,0,0,0,1.708-1.764,1.863,1.863,0,0,0-.041-.378A1.112,1.112,0,0,0,61.192,55.217Zm-14.805,0a1.157,1.157,0,0,0-1.138-1.175H37.278a1.177,1.177,0,0,0,0,2.352h5.8a1.709,1.709,0,0,0,1.6,1.175,1.736,1.736,0,0,0,1.708-1.764,1.954,1.954,0,0,0-.04-.378A1.222,1.222,0,0,0,46.387,55.217Zm0,0" transform="translate(-27.945 -36.91)" fill="#664500"/>
</svg>
