<svg id="_2" data-name="2" xmlns="http://www.w3.org/2000/svg" width="41.438" height="41.438" viewBox="0 0 41.438 41.438">
  <path id="Tracciato_2047" data-name="Tracciato 2047" d="M56.438,35.719A20.719,20.719,0,1,1,35.719,15,20.719,20.719,0,0,1,56.438,35.719" transform="translate(-15 -15)" fill="#ffcc4d"/>
  <path id="Tracciato_2048" data-name="Tracciato 2048" d="M50.756,62.361a5.664,5.664,0,0,1-.055.786,5.333,5.333,0,0,1-.165.755,4.614,4.614,0,0,1-.266.7,4.1,4.1,0,0,1-.357.611,3.353,3.353,0,0,1-.436.5,2.78,2.78,0,0,1-.5.372,2.315,2.315,0,0,1-.54.229,2.056,2.056,0,0,1-1.124,0,2.292,2.292,0,0,1-.54-.229,2.781,2.781,0,0,1-.5-.372,3.353,3.353,0,0,1-.436-.5,3.986,3.986,0,0,1-.357-.611,4.768,4.768,0,0,1-.267-.7,5.325,5.325,0,0,1-.163-.755,5.617,5.617,0,0,1,0-1.573,5.325,5.325,0,0,1,.163-.755,4.77,4.77,0,0,1,.267-.7,3.986,3.986,0,0,1,.357-.611,3.354,3.354,0,0,1,.436-.5,2.781,2.781,0,0,1,.5-.372,2.293,2.293,0,0,1,.54-.229,2.056,2.056,0,0,1,1.124,0,2.316,2.316,0,0,1,.54.229,2.781,2.781,0,0,1,.5.372,3.354,3.354,0,0,1,.436.5,4.1,4.1,0,0,1,.357.611,4.616,4.616,0,0,1,.266.7,5.333,5.333,0,0,1,.165.755A5.664,5.664,0,0,1,50.756,62.361Zm0,0" transform="translate(-34.64 -43.369)" fill="#664500"/>
  <path id="Tracciato_2049" data-name="Tracciato 2049" d="M94.088,62.361a5.688,5.688,0,0,1-.055.786,5.354,5.354,0,0,1-.163.755,4.8,4.8,0,0,1-.267.7,4.015,4.015,0,0,1-.357.611,3.36,3.36,0,0,1-.436.5,2.785,2.785,0,0,1-.5.372,2.292,2.292,0,0,1-.54.229,2.056,2.056,0,0,1-1.124,0,2.315,2.315,0,0,1-.54-.229,2.78,2.78,0,0,1-.5-.372,3.353,3.353,0,0,1-.436-.5,4.1,4.1,0,0,1-.357-.611,4.613,4.613,0,0,1-.266-.7,5.328,5.328,0,0,1-.165-.755,5.618,5.618,0,0,1,0-1.573,5.328,5.328,0,0,1,.165-.755,4.614,4.614,0,0,1,.266-.7,4.1,4.1,0,0,1,.357-.611,3.353,3.353,0,0,1,.436-.5,2.781,2.781,0,0,1,.5-.372,2.316,2.316,0,0,1,.54-.229,2.056,2.056,0,0,1,1.124,0,2.293,2.293,0,0,1,.54.229,2.785,2.785,0,0,1,.5.372,3.361,3.361,0,0,1,.436.5,4.015,4.015,0,0,1,.357.611,4.8,4.8,0,0,1,.267.7,5.354,5.354,0,0,1,.163.755A5.688,5.688,0,0,1,94.088,62.361Zm0,0" transform="translate(-63.009 -43.369)" fill="#664500"/>
  <path id="Tracciato_2050" data-name="Tracciato 2050" d="M69.315,98.373C69.3,98.323,68,93.332,63,93.332s-6.3,4.991-6.313,5.041a.57.57,0,0,0,.266.626.586.586,0,0,0,.687-.069c.012-.009,1.167-.993,5.361-.993,4.132,0,5.315.955,5.359.993a.576.576,0,0,0,.955-.557Zm0,0" transform="translate(-42.281 -66.283)" fill="#664500"/>
  <path id="Tracciato_2051" data-name="Tracciato 2051" d="M26.51,93.178a5.755,5.755,0,1,1-11.51,0c0-3.179,4.6-11.51,5.756-11.51S26.51,90,26.51,93.178Zm0,0" transform="translate(-15 -58.646)" fill="#5dadec"/>
  <path id="Tracciato_2052" data-name="Tracciato 2052" d="M35.719,27.662c10.071,0,18.454,5.189,20.323,12.067a20.719,20.719,0,1,0-40.645,0C17.265,32.851,25.65,27.662,35.719,27.662Zm0,0" transform="translate(-15 -15)" fill="#5dadec"/>
  <path id="Tracciato_2053" data-name="Tracciato 2053" d="M60.444,41.9a10.246,10.246,0,0,1-9.088-5.24,1.151,1.151,0,0,1,2.057-1.035A7.948,7.948,0,0,0,60.444,39.6a1.151,1.151,0,0,1,0,2.3Zm-27.626,0a1.151,1.151,0,0,1,0-2.3c5.85,0,6.9-3.591,6.944-3.745a1.159,1.159,0,0,1,1.4-.816,1.146,1.146,0,0,1,.827,1.388C41.936,36.652,40.536,41.9,32.819,41.9Zm0,0" transform="translate(-25.912 -28.092)" fill="#664500"/>
</svg>
