<svg id="_8" data-name="8" xmlns="http://www.w3.org/2000/svg" width="41.441" height="41.442" viewBox="0 0 41.441 41.442">
  <path id="Tracciato_2070" data-name="Tracciato 2070" d="M61.135,36.558a20.716,20.716,0,1,1-24.6-15.916,20.717,20.717,0,0,1,24.6,15.916" transform="translate(-20.159 -20.178)" fill="#ffcb4c"/>
  <path id="Tracciato_2071" data-name="Tracciato 2071" d="M83.11,37.13a7.235,7.235,0,1,1-8.59-5.557A7.235,7.235,0,0,1,83.11,37.13Zm0,0" transform="translate(-49.688 -27.448)" fill="#f4f7f9"/>
  <path id="Tracciato_2072" data-name="Tracciato 2072" d="M86.288,44.459a2.209,2.209,0,0,1-.043.426,2.108,2.108,0,0,1-.124.411,2.188,2.188,0,0,1-.475.711,2.238,2.238,0,0,1-.331.271,2.172,2.172,0,0,1-.379.2,2.133,2.133,0,0,1-.411.124,2.2,2.2,0,0,1-1.264-.124,2.171,2.171,0,0,1-.379-.2,2.146,2.146,0,0,1-.6-.6,2.178,2.178,0,0,1-.2-.379,2.2,2.2,0,0,1,0-1.674,2.177,2.177,0,0,1,.2-.379,2.236,2.236,0,0,1,.271-.331,2.186,2.186,0,0,1,.711-.475,2.108,2.108,0,0,1,.411-.124,2.15,2.15,0,0,1,.853,0,2.137,2.137,0,0,1,.411.124,2.189,2.189,0,0,1,1.185,1.185,2.108,2.108,0,0,1,.124.411A2.213,2.213,0,0,1,86.288,44.459Zm0,0" transform="translate(-58.377 -33.851)" fill="#292f33"/>
  <path id="Tracciato_2073" data-name="Tracciato 2073" d="M47.732,57.539A4.231,4.231,0,1,1,42.71,54.29,4.23,4.23,0,0,1,47.732,57.539Zm0,0" transform="translate(-31.972 -41.101)" fill="#f4f7f9"/>
  <path id="Tracciato_2074" data-name="Tracciato 2074" d="M49.574,64.206a2.061,2.061,0,0,1,.012.814,2.035,2.035,0,0,1-.113.393,2.075,2.075,0,0,1-.442.683,1.974,1.974,0,0,1-.313.265,2.011,2.011,0,0,1-.357.2,2.171,2.171,0,0,1-.39.124,2.06,2.06,0,0,1-.814.012,2.033,2.033,0,0,1-.393-.113,2.089,2.089,0,0,1-.948-.755,2.142,2.142,0,0,1-.2-.357,2.176,2.176,0,0,1-.124-.39,2.13,2.13,0,0,1-.012-.814,2.136,2.136,0,0,1,.113-.393,2.162,2.162,0,0,1,.187-.364,2.111,2.111,0,0,1,.255-.32,2.2,2.2,0,0,1,.313-.265,2.056,2.056,0,0,1,.358-.2,2.1,2.1,0,0,1,1.2-.138,2.135,2.135,0,0,1,.393.113,2.074,2.074,0,0,1,.683.442,2.039,2.039,0,0,1,.265.313,2.065,2.065,0,0,1,.2.358A2.127,2.127,0,0,1,49.574,64.206Zm0,0" transform="translate(-35.815 -46.414)" fill="#292f33"/>
  <path id="Tracciato_2075" data-name="Tracciato 2075" d="M55.95,77.99a45.444,45.444,0,0,1-9.68.976c-.743.017-2.1.451-1.649,2.552.9,4.2,6.852,8.419,13.582,6.978s10.429-7.729,9.529-11.932c-.449-2.1-1.867-1.942-2.551-1.649A45.6,45.6,0,0,1,55.95,77.99Zm0,0" transform="translate(-34.39 -52.739)" fill="#65471b"/>
  <path id="Tracciato_2076" data-name="Tracciato 2076" d="M53.68,93.285v6.446a6.446,6.446,0,1,0,12.892,0V93.285Zm0,0" transform="translate(-40.591 -64.74)" fill="#e8596e"/>
  <path id="Tracciato_2077" data-name="Tracciato 2077" d="M70.879,103.8a.586.586,0,0,0,.586-.586V96.449H70.293v6.764A.587.587,0,0,0,70.879,103.8Zm0,0" transform="translate(-51.308 -66.788)" fill="#dd2f45"/>
  <path id="Tracciato_2078" data-name="Tracciato 2078" d="M50.738,85.232s3.377.375,9.68-.976,9.23-3.077,9.23-3.077-1.2,4.652-8.554,6.228S50.738,85.232,50.738,85.232Zm0,0" transform="translate(-38.447 -57.812)" fill="#fff"/>
</svg>
