<svg id="_7" data-name="7" xmlns="http://www.w3.org/2000/svg" width="41.441" height="41.441" viewBox="0 0 41.441 41.441">
  <path id="Tracciato_2066" data-name="Tracciato 2066" d="M56.441,35.72A20.72,20.72,0,1,1,35.72,15a20.72,20.72,0,0,1,20.72,20.72" transform="translate(-15 -15)" fill="#ffcc4d"/>
  <path id="Tracciato_2067" data-name="Tracciato 2067" d="M50.822,82.764A46.488,46.488,0,0,1,40.6,81.589c-.77-.154-2.271,0-2.271,2.351,0,4.7,5.217,10.583,12.49,10.583s12.49-5.878,12.49-10.583c0-2.351-1.5-2.506-2.271-2.351A46.487,46.487,0,0,1,50.822,82.764Zm0,0" transform="translate(-30.102 -58.961)" fill="#664500"/>
  <path id="Tracciato_2068" data-name="Tracciato 2068" d="M45,88.332s3.528,1.177,10.583,1.177,10.583-1.177,10.583-1.177-2.352,4.7-10.583,4.7S45,88.332,45,88.332Zm0,0" transform="translate(-34.862 -63.076)" fill="#fff"/>
  <path id="Tracciato_2069" data-name="Tracciato 2069" d="M33.375,20.867l-5.228.941-2.693-5a1.432,1.432,0,0,0-1.509-.739,1.458,1.458,0,0,0-1.173,1.222l-.858,5.64-5.226.943a1.458,1.458,0,0,0-1.176,1.251,1.475,1.475,0,0,0,.809,1.524L21,28.921l-.861,5.658a1.48,1.48,0,0,0,.774,1.539,1.416,1.416,0,0,0,1.672-.281l4.042-4.186,5.2,2.522a1.416,1.416,0,0,0,1.663-.32,1.492,1.492,0,0,0,.213-1.715l-2.7-5.018,3.642-3.773a1.5,1.5,0,0,0,.251-1.716A1.437,1.437,0,0,0,33.375,20.867Zm5.336,0,5.228.941,2.693-5a1.432,1.432,0,0,1,1.509-.739,1.458,1.458,0,0,1,1.172,1.222l.858,5.64,5.228.943a1.453,1.453,0,0,1,1.175,1.25,1.48,1.48,0,0,1-.809,1.525L51.08,28.92l.86,5.658a1.483,1.483,0,0,1-.774,1.541,1.422,1.422,0,0,1-1.673-.281l-4.042-4.188-5.2,2.522a1.418,1.418,0,0,1-1.664-.32,1.492,1.492,0,0,1-.213-1.716l2.7-5.017-3.642-3.773a1.493,1.493,0,0,1-.25-1.716A1.437,1.437,0,0,1,38.71,20.867Zm0,0" transform="translate(-15.322 -15.678)" fill="#e95f28"/>
</svg>
