<svg id="_11" data-name="11" xmlns="http://www.w3.org/2000/svg" width="41.441" height="41.441" viewBox="0 0 41.441 41.441">
  <path id="Tracciato_2085" data-name="Tracciato 2085" d="M56.441,35.72A20.72,20.72,0,1,1,35.72,15a20.72,20.72,0,0,1,20.72,20.72" transform="translate(-15 -15)" fill="#ffcc4d"/>
  <path id="Tracciato_2086" data-name="Tracciato 2086" d="M49.011,63.81a1.182,1.182,0,0,1-1.125-.75c-.242-.656-1.207-2.537-2.435-2.537-1.26,0-2.24,2-2.433,2.537a1.208,1.208,0,0,1-1.5.693,1.08,1.08,0,0,1-.751-1.387c.149-.412,1.548-4.035,4.684-4.035s4.537,3.623,4.686,4.036a1.078,1.078,0,0,1-.749,1.385A1.335,1.335,0,0,1,49.011,63.81Zm11.866,0a1.18,1.18,0,0,1-1.125-.75c-.242-.656-1.21-2.537-2.435-2.537-1.261,0-2.241,2-2.435,2.537a1.209,1.209,0,0,1-1.5.693,1.08,1.08,0,0,1-.749-1.387c.149-.412,1.548-4.035,4.686-4.035S61.853,61.955,62,62.368a1.078,1.078,0,0,1-.751,1.385A1.31,1.31,0,0,1,60.877,63.81Zm-9.493,4.382a54.228,54.228,0,0,1-10.679-1.1c-.805-.144-2.373,0-2.373,2.191,0,4.382,5.452,9.86,13.052,9.86s13.052-5.478,13.052-9.86c0-2.191-1.568-2.337-2.373-2.191A54.228,54.228,0,0,1,51.384,68.192Zm0,0" transform="translate(-30.664 -42.089)" fill="#664500"/>
  <path id="Tracciato_2087" data-name="Tracciato 2087" d="M45,91.668s3.287,1.1,9.86,1.1,9.86-1.1,9.86-1.1a9.661,9.661,0,0,1-9.86,7.395A9.661,9.661,0,0,1,45,91.668Zm0,0" transform="translate(-34.139 -64.896)" fill="#fff"/>
  <path id="Tracciato_2088" data-name="Tracciato 2088" d="M55.392,101.035a40.876,40.876,0,0,1-8.7-.816l-.9-2.049c.9.342,4.261.982,9.6.982,5.427,0,8.8-.675,9.711-1.027l-.768,2.017A40.418,40.418,0,0,1,55.392,101.035Zm0,0" transform="translate(-34.666 -69.308)" fill="#664500"/>
</svg>
