<svg id="_10" data-name="10" xmlns="http://www.w3.org/2000/svg" width="41.441" height="41.441" viewBox="0 0 41.441 41.441">
  <path id="Tracciato_2083" data-name="Tracciato 2083" d="M56.441,35.72A20.72,20.72,0,1,1,35.72,15a20.72,20.72,0,0,1,20.72,20.72" transform="translate(-15 -15)" fill="#ffcc4d"/>
  <path id="Tracciato_2084" data-name="Tracciato 2084" d="M32.839,45.426a1.182,1.182,0,0,1,0-2.364A9.869,9.869,0,0,0,40.111,38.8a1.166,1.166,0,0,1,1.641-.237,1.191,1.191,0,0,1,.235,1.656A12.178,12.178,0,0,1,32.839,45.426Zm28.14,0a12.175,12.175,0,0,1-9.146-5.2,1.188,1.188,0,0,1,.235-1.656,1.161,1.161,0,0,1,1.639.237,9.86,9.86,0,0,0,7.277,4.257,1.182,1.182,0,0,1-.006,2.364Zm.7,8.514a21.021,21.021,0,0,0-5.448-2.772,1.849,1.849,0,0,0,.055-.421,1.768,1.768,0,0,0-.422-1.139,16.138,16.138,0,0,1,3.941-.635,1.182,1.182,0,0,0,0-2.364c-.26,0-6.392.044-10.209,3.894a1.188,1.188,0,0,0-.254,1.289,1.169,1.169,0,0,0,1.083.729,18.428,18.428,0,0,1,9.851,3.313,1.173,1.173,0,0,0,1.642-.24A1.192,1.192,0,0,0,61.683,53.941ZM44.221,50.5c-3.816-3.85-9.949-3.894-10.209-3.894a1.182,1.182,0,0,0,0,2.364,16.153,16.153,0,0,1,3.942.635,1.761,1.761,0,0,0-.423,1.139,1.851,1.851,0,0,0,.055.421,21.024,21.024,0,0,0-5.448,2.772A1.189,1.189,0,0,0,31.9,55.6a1.167,1.167,0,0,0,1.642.238,18.322,18.322,0,0,1,9.849-3.312,1.171,1.171,0,0,0,1.083-.729A1.188,1.188,0,0,0,44.221,50.5ZM46.91,65.53a1.17,1.17,0,0,1-.915-.443l-3.746-4.722L39.64,63.874A1.167,1.167,0,0,1,37.873,64L36.7,62.818a1.186,1.186,0,0,1,0-1.671,1.164,1.164,0,0,1,1.658,0l.217.219,2.705-3.641a1.165,1.165,0,0,1,1.852-.029l3.776,4.757L50.684,57.7a1.181,1.181,0,0,1,.934-.443,1.161,1.161,0,0,1,.919.473l2.707,3.639.217-.219a1.164,1.164,0,0,1,1.658,0,1.189,1.189,0,0,1,0,1.671L55.947,64a1.131,1.131,0,0,1-.911.342,1.168,1.168,0,0,1-.855-.47L51.57,60.365l-3.744,4.72A1.172,1.172,0,0,1,46.91,65.53Zm0,0" transform="translate(-26.189 -30.663)" fill="#664500"/>
</svg>
