<svg id="_5" data-name="5" xmlns="http://www.w3.org/2000/svg" width="41.438" height="41.438" viewBox="0 0 41.438 41.438">
  <path id="Tracciato_2062" data-name="Tracciato 2062" d="M56.438,35.719A20.719,20.719,0,1,1,35.719,15,20.719,20.719,0,0,1,56.438,35.719" transform="translate(-15 -15)" fill="#ffcc4d"/>
  <path id="Tracciato_2063" data-name="Tracciato 2063" d="M45.84,52.729a.577.577,0,0,0-.7-.016,7.668,7.668,0,0,1-4.261,1.039,7.694,7.694,0,0,1-4.258-1.036.575.575,0,0,0-.871.693c.069.155,1.727,3.8,5.13,3.8s5.061-3.641,5.131-3.8A.574.574,0,0,0,45.84,52.729Zm11.51,0a.575.575,0,0,0-.7-.016,7.679,7.679,0,0,1-4.261,1.039,7.708,7.708,0,0,1-4.26-1.036.575.575,0,0,0-.871.693c.07.155,1.727,3.8,5.131,3.8s5.061-3.641,5.13-3.8A.574.574,0,0,0,57.35,52.729ZM51.235,64.685H42.028a1.151,1.151,0,1,1,0-2.3h9.208a1.151,1.151,0,1,1,0,2.3ZM32.819,48.571a1.151,1.151,0,0,1,0-2.3,9.709,9.709,0,0,0,7.142-4.144A1.151,1.151,0,1,1,41.8,43.506,12,12,0,0,1,32.819,48.571Zm27.626,0a11.992,11.992,0,0,1-8.978-5.065,1.15,1.15,0,1,1,1.84-1.381,9.7,9.7,0,0,0,7.144,4.144,1.151,1.151,0,0,1-.006,2.3Zm0,0" transform="translate(-25.912 -32.456)" fill="#664500"/>
</svg>
