<svg id="_9" data-name="9" xmlns="http://www.w3.org/2000/svg" width="41.441" height="41.441" viewBox="0 0 41.441 41.441">
  <path id="Tracciato_2079" data-name="Tracciato 2079" d="M56.441,35.72A20.72,20.72,0,1,1,35.72,15a20.72,20.72,0,0,1,20.72,20.72" transform="translate(-15 -15)" fill="#ffcc4d"/>
  <path id="Tracciato_2080" data-name="Tracciato 2080" d="M52.546,64.066a3.458,3.458,0,0,1-.056.631,3.416,3.416,0,0,1-.438,1.166,3.122,3.122,0,0,1-.367.489,2.921,2.921,0,0,1-.445.4,2.781,2.781,0,0,1-.508.3,2.7,2.7,0,0,1-.551.185,2.68,2.68,0,0,1-1.146,0,2.7,2.7,0,0,1-.551-.185,2.781,2.781,0,0,1-.508-.3,2.922,2.922,0,0,1-.445-.4,3.124,3.124,0,0,1-.367-.489,3.416,3.416,0,0,1-.438-1.166,3.555,3.555,0,0,1,0-1.262,3.415,3.415,0,0,1,.438-1.166,3.125,3.125,0,0,1,.367-.489,2.924,2.924,0,0,1,.445-.4,2.779,2.779,0,0,1,.508-.3,2.688,2.688,0,0,1,2.249,0,2.779,2.779,0,0,1,.508.3,2.923,2.923,0,0,1,.445.4,3.123,3.123,0,0,1,.367.489,3.416,3.416,0,0,1,.438,1.166A3.457,3.457,0,0,1,52.546,64.066Zm0,0" transform="translate(-35.77 -45.066)" fill="#664500"/>
  <path id="Tracciato_2081" data-name="Tracciato 2081" d="M92.546,62.448a5.6,5.6,0,0,1-.056.8,5.274,5.274,0,0,1-.167.772,4.893,4.893,0,0,1-.271.711,4.107,4.107,0,0,1-.367.624,3.352,3.352,0,0,1-.445.511,2.744,2.744,0,0,1-.508.38,2.316,2.316,0,0,1-.551.234,2.1,2.1,0,0,1-1.146,0,2.316,2.316,0,0,1-.551-.234,2.744,2.744,0,0,1-.508-.38,3.347,3.347,0,0,1-.445-.511,4.083,4.083,0,0,1-.367-.624,4.862,4.862,0,0,1-.271-.711,5.256,5.256,0,0,1-.167-.772,5.742,5.742,0,0,1,0-1.607,5.255,5.255,0,0,1,.167-.772,4.864,4.864,0,0,1,.271-.711,4.083,4.083,0,0,1,.367-.624,3.348,3.348,0,0,1,.445-.511,2.745,2.745,0,0,1,.508-.38,2.317,2.317,0,0,1,.551-.234,2.1,2.1,0,0,1,1.146,0,2.317,2.317,0,0,1,.551.234,2.745,2.745,0,0,1,.508.38,3.353,3.353,0,0,1,.445.511,4.107,4.107,0,0,1,.367.624,4.9,4.9,0,0,1,.271.711,5.273,5.273,0,0,1,.167.772A5.6,5.6,0,0,1,92.546,62.448Zm0,0" transform="translate(-62.004 -43.445)" fill="#664500"/>
  <path id="Tracciato_2082" data-name="Tracciato 2082" d="M37.761,38.718a1.175,1.175,0,0,0,1.042.158,9.908,9.908,0,0,1,8.4.748A1.177,1.177,0,0,0,48.556,37.7a12.251,12.251,0,0,0-10.476-1.06,1.177,1.177,0,0,0-.318,2.079Zm21.045,15.8H42.346a1.176,1.176,0,1,1,0-2.352H58.807a1.176,1.176,0,1,1,0,2.352Zm5.881-18.335a1.472,1.472,0,0,1-1.152-.553c-1.64-2.06-5.054-3.865-6.247-3.865-.755,0-2.264,1.071-3.062,1.844a1.471,1.471,0,0,1-2.05-2.11c.46-.446,2.865-2.676,5.112-2.676,2.358,0,6.512,2.418,8.549,4.973a1.47,1.47,0,0,1-1.149,2.387Zm0,0" transform="translate(-30.301 -23.95)" fill="#664500"/>
</svg>
