<svg id="_4" data-name="4" xmlns="http://www.w3.org/2000/svg" width="41.438" height="41.438" viewBox="0 0 41.438 41.438">
  <path id="Tracciato_2056" data-name="Tracciato 2056" d="M56.438,35.719A20.719,20.719,0,1,1,35.719,15,20.719,20.719,0,0,1,56.438,35.719" transform="translate(-15 -15)" fill="#ffcc4d"/>
  <path id="Tracciato_2057" data-name="Tracciato 2057" d="M51.232,63.533c0,3.181-2.061,3.453-4.6,3.453s-4.6-.272-4.6-3.453,2.06-6.906,4.6-6.906S51.232,60.355,51.232,63.533ZM60.441,49.72a1.162,1.162,0,0,1-.428-.082c-6.019-2.408-8.485-6.034-8.587-6.186a1.151,1.151,0,0,1,1.913-1.281,17.188,17.188,0,0,0,7.53,5.328,1.152,1.152,0,0,1-.428,2.222Zm-27.626,0a1.151,1.151,0,0,1-.428-2.22,17.2,17.2,0,0,0,7.53-5.328,1.151,1.151,0,0,1,1.913,1.281c-.1.152-2.568,3.778-8.587,6.185A1.163,1.163,0,0,1,32.815,49.72Zm0,0" transform="translate(-25.909 -32.455)" fill="#664500"/>
  <path id="Tracciato_2058" data-name="Tracciato 2058" d="M60.085,68.332h4.6V90.2l-4.6-.054ZM41.668,90.2l4.6-.054V68.332h-4.6Zm0,0" transform="translate(-32.459 -49.916)" fill="#5dadec"/>
  <path id="Tracciato_2059" data-name="Tracciato 2059" d="M45.358,68.692a1.144,1.144,0,0,1-.513-.121,9.949,9.949,0,0,0-8.178,0,1.151,1.151,0,1,1-1.031-2.058,12.223,12.223,0,0,1,10.238,0,1.15,1.15,0,0,1-.517,2.18Zm16.115,0a1.148,1.148,0,0,1-.514-.121,9.949,9.949,0,0,0-8.179,0,1.151,1.151,0,1,1-1.029-2.058,12.231,12.231,0,0,1,10.238,0,1.151,1.151,0,0,1-.517,2.18Zm0,0" transform="translate(-28.094 -47.973)" fill="#664500"/>
  <path id="Tracciato_2060" data-name="Tracciato 2060" d="M56.438,123.969a.347.347,0,0,1-.1.227,1.163,1.163,0,0,1-.3.223,3.521,3.521,0,0,1-.494.22c-.2.071-.426.143-.685.212s-.55.139-.87.205-.668.131-1.045.194-.78.123-1.211.181-.885.115-1.365.167-.982.1-1.507.152-1.068.092-1.632.134-1.146.081-1.744.116-1.211.069-1.839.1-1.265.054-1.914.077-1.307.039-1.972.054-1.337.026-2.011.034-1.353.011-2.031.011-1.356,0-2.031-.011-1.345-.019-2.011-.034-1.322-.032-1.972-.054-1.287-.049-1.914-.077-1.24-.061-1.839-.1-1.179-.074-1.744-.116-1.107-.086-1.632-.134-1.027-.1-1.507-.152-.935-.109-1.365-.167-.835-.119-1.211-.181-.726-.128-1.045-.194-.61-.135-.87-.205-.488-.14-.685-.212a3.511,3.511,0,0,1-.494-.22,1.162,1.162,0,0,1-.3-.223.305.305,0,0,1,0-.452,1.13,1.13,0,0,1,.3-.224,3.516,3.516,0,0,1,.494-.219c.2-.073.426-.143.685-.213s.55-.137.87-.2.668-.131,1.045-.194.78-.123,1.211-.181.885-.115,1.365-.167.982-.1,1.507-.152,1.068-.093,1.632-.135,1.147-.079,1.744-.116,1.211-.067,1.839-.1,1.265-.055,1.914-.077,1.307-.04,1.972-.055,1.337-.026,2.011-.032,1.353-.011,2.031-.011,1.356,0,2.031.011,1.345.019,2.011.032,1.322.034,1.972.055,1.287.047,1.914.077,1.24.061,1.839.1,1.179.074,1.744.116,1.107.088,1.632.135,1.026.1,1.507.152.935.108,1.365.167.835.119,1.211.181.726.128,1.045.194.61.135.87.2.488.141.685.213a3.525,3.525,0,0,1,.494.219,1.132,1.132,0,0,1,.3.224A.344.344,0,0,1,56.438,123.969Zm0,0" transform="translate(-15 -84.834)" fill="#5dadec"/>
  <path id="Tracciato_2061" data-name="Tracciato 2061" d="M71.906,100.635a1.556,1.556,0,0,1-.066.449,1.8,1.8,0,0,1-.2.432,2.18,2.18,0,0,1-.318.4,2.873,2.873,0,0,1-.43.349,3.533,3.533,0,0,1-.523.286,4.331,4.331,0,0,1-.6.213,4.841,4.841,0,0,1-.649.131,5.107,5.107,0,0,1-1.346,0,4.843,4.843,0,0,1-.649-.131,4.331,4.331,0,0,1-.6-.213,3.533,3.533,0,0,1-.523-.286,2.87,2.87,0,0,1-.43-.349,2.181,2.181,0,0,1-.318-.4,1.8,1.8,0,0,1-.2-.432,1.56,1.56,0,0,1,0-.9,1.8,1.8,0,0,1,.2-.432,2.182,2.182,0,0,1,.318-.4,2.872,2.872,0,0,1,.43-.349,3.531,3.531,0,0,1,.523-.286,4.324,4.324,0,0,1,.6-.213,4.85,4.85,0,0,1,.649-.131,5.114,5.114,0,0,1,1.346,0,4.848,4.848,0,0,1,.649.131,4.323,4.323,0,0,1,.6.213,3.531,3.531,0,0,1,.523.286,2.875,2.875,0,0,1,.43.349,2.181,2.181,0,0,1,.318.4,1.8,1.8,0,0,1,.2.432A1.558,1.558,0,0,1,71.906,100.635Zm0,0" transform="translate(-47.734 -69.556)" fill="#e75a70"/>
</svg>
