<svg id="_1" data-name="1" xmlns="http://www.w3.org/2000/svg" xmlns:xlink="http://www.w3.org/1999/xlink" width="39.367" height="39.31" viewBox="0 0 39.367 39.31">
  <defs>
    <clipPath id="clip-path">
      <path id="Tracciato_2041" data-name="Tracciato 2041" d="M19,18.164H58.367v39.31H19Zm0,0" transform="translate(-19 -18.164)"/>
    </clipPath>
    <clipPath id="clip-path-2">
      <path id="Tracciato_2043" data-name="Tracciato 2043" d="M19,18.164H58.367v23.77H19Zm0,0" transform="translate(-19 -18.164)"/>
    </clipPath>
  </defs>
  <g id="Raggruppa_9106" data-name="Raggruppa 9106" transform="translate(0 0)" clip-path="url(#clip-path)">
    <path id="Tracciato_2040" data-name="Tracciato 2040" d="M38.609,18.457A19.58,19.58,0,0,0,27.3,53.982c.113-7-2.427-14.855-6.692-14.855a3.548,3.548,0,0,0-1.252.2c.329-.824,1.041-1.287,2.375-1.287,4.632,0,7.23,9.253,6.608,16.632a19.355,19.355,0,0,0,20.544,0c-.627-7.405,1.972-16.63,6.607-16.63,1.337,0,2.052.463,2.378,1.287a3.57,3.57,0,0,0-1.256-.2c-4.272,0-6.811,7.832-6.693,14.855A19.58,19.58,0,0,0,38.609,18.457Zm0,0" transform="translate(-19.054 -18.356)" fill="#ffcc4d"/>
  </g>
  <g id="Raggruppa_9107" data-name="Raggruppa 9107" transform="translate(0 0)" clip-path="url(#clip-path-2)">
    <path id="Tracciato_2042" data-name="Tracciato 2042" d="M38.609,18.457A19.567,19.567,0,0,0,19.456,41.829a11.409,11.409,0,0,1,1.148-2.7,3.529,3.529,0,0,0-1.248.2,2.055,2.055,0,0,1,1.918-1.242c3.245-4.546,9.781-7.66,17.335-7.66S52.7,33.536,55.944,38.082a2.052,2.052,0,0,1,1.922,1.244,3.542,3.542,0,0,0-1.251-.2,11.466,11.466,0,0,1,1.147,2.7A19.573,19.573,0,0,0,38.609,18.457Zm0,0" transform="translate(-19.054 -18.356)" fill="#5dadec"/>
  </g>
  <path id="Tracciato_2044" data-name="Tracciato 2044" d="M41.45,46.354C40.423,49.81,41.566,53.2,44,53.928s5.245-1.481,6.268-4.937-.115-6.846-2.549-7.574S42.476,42.9,41.45,46.354Zm23.111,0c1.027,3.456-.116,6.847-2.551,7.574s-5.245-1.481-6.27-4.937.116-6.846,2.551-7.574S63.532,42.9,64.56,46.354Zm0,0" transform="translate(-33.451 -33.297)" fill="#f5f8fa"/>
  <path id="Tracciato_2045" data-name="Tracciato 2045" d="M65.346,75.164A5.438,5.438,0,0,0,59.922,80.6v6.529a5.424,5.424,0,1,0,10.848,0V80.6A5.438,5.438,0,0,0,65.346,75.164Zm0,0" transform="translate(-45.791 -55.481)" fill="#664500"/>
  <path id="Tracciato_2046" data-name="Tracciato 2046" d="M20.691,77.709a3.548,3.548,0,0,0-1.252.2,2.032,2.032,0,0,1,.3-.518c-2.019,2.493,2.514,10.7.31,18.813h7.008C28.353,88.632,25.723,77.709,20.691,77.709Zm37.261.2a3.569,3.569,0,0,0-1.256-.2c-5.034,0-7.663,10.881-6.371,18.495h7.007C55.265,88.539,59.13,80.876,57.952,77.909Zm0,0" transform="translate(-19.139 -56.939)" fill="#fcab40"/>
</svg>
